<svg xmlns="http://www.w3.org/2000/svg" width="20" height="20" viewBox="0 0 20 20" fill="none">
  <path fill-rule="evenodd" clip-rule="evenodd" d="M13.4319 3.36526L13.4456 3.35189L14.8101 4.67483V1.66815L14.121 1H1.71669L1.01378 1.66815V2.32695L1 2.3363V16.0869L1.49617 16.7016L8.38744 19L9.26953 18.3719V17.0356H14.121L14.8101 16.3675V13.3608L13.4319 14.6971V15.6993H9.26953V4.62138L8.8147 4.00668L3.80613 2.3363H13.4319V3.36526ZM7.89127 17.4098L2.37825 15.6192V3.29844L7.89127 5.08909V17.4098ZM12.1501 8.38976H19V9.72606H12.2052L14.3966 11.8641L13.4181 12.7996L10.0138 9.51225V8.56347L13.4456 5.24944L14.4104 6.18486L12.1501 8.38976Z" fill="white" stroke="white" stroke-width="0.25" stroke-linejoin="round"/>
</svg>